<svg width="149" height="64" viewBox="0 0 149 64" fill="none" xmlns="http://www.w3.org/2000/svg">
<path d="M36.3982 23.8293C36.8532 20.872 37.7631 17.2322 42.5404 14.7298C46.4077 12.6824 51.1849 12.4549 54.8247 12.4549C71.2039 12.4549 71.2039 20.872 71.2039 24.9668V43.6208C71.2039 45.8957 71.4314 46.3507 72.3413 47.9431H58.9195V45.2133C57.0996 46.3507 53.9148 48.6256 47.5451 48.6256C38.9006 48.6256 35.2607 43.3934 35.2607 37.4787C35.2607 35.4313 35.7157 32.4739 38.2181 30.199C41.4029 27.0142 45.0427 26.5592 50.9574 25.6493C54.8247 25.1943 56.1897 24.7393 58.2371 24.2843C58.2371 22.0094 57.5546 20.417 53.6873 20.417C50.5025 20.417 49.82 21.0995 49.365 23.6019L36.3982 23.8293ZM54.1423 33.1564C53.0048 33.3839 51.8674 33.6113 50.73 34.0663C48.0001 35.2038 48.0001 36.7962 48.0001 37.0237C48.0001 37.9336 48.6826 39.7535 51.4124 39.7535C53.2323 39.7535 56.4172 38.3886 57.7821 35.8862C58.4646 34.5213 58.4646 33.1564 58.4646 31.7914C56.8721 32.2464 55.5072 32.7014 54.1423 33.1564Z" fill="#F48120"/>
<path d="M70.0664 13.3649H84.1707L87.583 28.1516C88.2655 32.2464 88.493 33.1564 89.1754 38.1611C89.8579 32.7014 90.0854 31.7915 90.7679 27.6967L94.1802 13.3649H108.284L95.7726 49.5356C94.8626 52.0379 93.9527 54.9953 91.6778 57.0427C88.7205 59.7725 86.4456 60 82.1233 60C79.1659 60 77.5735 59.7725 74.8437 59.5451V49.7631C75.9811 49.7631 77.346 49.9905 78.711 49.9905C80.5309 49.9905 81.6683 49.5356 81.6683 48.3981C81.6683 47.7157 80.9859 45.6683 80.5309 44.9858L70.0664 13.3649Z" fill="#F48120"/>
<path d="M139.223 17.0047C142.408 20.1896 144.683 25.1943 144.683 30.654C144.683 41.346 137.176 49.0806 124.209 49.0806C110.332 49.0806 104.645 39.9811 104.645 30.8815C104.645 19.5071 112.152 12 124.891 12C131.716 12 136.493 14.5024 139.223 17.0047ZM118.294 30.4266C118.294 33.8389 118.977 39.5261 124.664 39.5261C129.441 39.5261 131.034 35.4313 131.034 30.4266C131.034 28.3792 130.806 21.5545 124.664 21.782C119.432 21.782 118.294 26.5593 118.294 30.4266Z" fill="#F48120"/>
<path d="M146.275 13.8198C147.64 13.8198 148.778 14.9573 148.778 16.3222C149.005 17.6871 147.868 18.8246 146.275 18.8246C144.683 18.8246 143.773 17.6871 143.773 16.3222C143.773 14.9573 144.91 13.8198 146.275 13.8198ZM146.275 18.3696C147.413 18.3696 148.323 17.4596 148.323 16.3222C148.323 15.1848 147.413 14.2748 146.275 14.2748C145.138 14.2748 144.228 15.1848 144.228 16.3222C144.228 17.4596 145.138 18.3696 146.275 18.3696ZM145.82 17.6871H145.138V14.9573H146.503C146.73 14.9573 147.64 14.9573 147.64 15.8672C147.64 16.3222 147.185 16.5497 147.185 16.5497L147.64 17.6871H146.958L146.503 16.5497H145.82V17.6871V17.6871ZM145.82 16.0947H146.503C146.73 16.0947 146.958 16.0947 146.958 15.6397C146.958 15.4122 146.958 15.1848 146.503 15.1848H145.82V16.0947Z" fill="#F48120"/>
<path d="M11.8293 47.7155H34.3507V37.2511H21.8388L14.5592 44.9857H11.1468L34.3507 21.0994V14.9572L2.27478 47.7155H8.41697H11.8293Z" fill="#F48120"/>
<path d="M0 39.981V46.5782L32.5308 13.3649H2.0474V23.6019H12.7394L20.2465 16.0948H23.6588L0 39.981Z" fill="#F48120"/>
</svg>
